<mxfile host="app.diagrams.net" modified="2020-12-09T12:56:18.446Z" agent="5.0 (Macintosh; Intel Mac OS X 10_15_7) AppleWebKit/537.36 (KHTML, like Gecko) Chrome/86.0.4240.198 Safari/537.36" etag="1kPZZCLD07ycoMVwon7w" version="14.0.0" type="github">
  <diagram id="sRVh-NJ6BCblYQnMDK27" name="Page-1">
    <mxGraphModel dx="3443" dy="1827" grid="1" gridSize="10" guides="1" tooltips="1" connect="1" arrows="1" fold="1" page="1" pageScale="1" pageWidth="1169" pageHeight="827" math="0" shadow="0">
      <root>
        <mxCell id="0" />
        <mxCell id="1" parent="0" />
        <mxCell id="Bj8GhoDePKiAsQOhMvHB-4" value="" style="edgeStyle=orthogonalEdgeStyle;rounded=0;orthogonalLoop=1;jettySize=auto;html=1;" edge="1" parent="1" source="Bj8GhoDePKiAsQOhMvHB-2" target="Bj8GhoDePKiAsQOhMvHB-3">
          <mxGeometry relative="1" as="geometry" />
        </mxCell>
        <mxCell id="Bj8GhoDePKiAsQOhMvHB-6" value="" style="edgeStyle=orthogonalEdgeStyle;rounded=0;orthogonalLoop=1;jettySize=auto;html=1;fontFamily=Comic Sans MS;dashed=1;" edge="1" parent="1" source="Bj8GhoDePKiAsQOhMvHB-2" target="Bj8GhoDePKiAsQOhMvHB-5">
          <mxGeometry relative="1" as="geometry" />
        </mxCell>
        <mxCell id="Bj8GhoDePKiAsQOhMvHB-11" value="[Single/Multi]ChildElement" style="edgeLabel;html=1;align=center;verticalAlign=middle;resizable=0;points=[];fontFamily=Comic Sans MS;" vertex="1" connectable="0" parent="Bj8GhoDePKiAsQOhMvHB-6">
          <mxGeometry x="-0.15" y="-3" relative="1" as="geometry">
            <mxPoint x="13" y="16.21" as="offset" />
          </mxGeometry>
        </mxCell>
        <mxCell id="Bj8GhoDePKiAsQOhMvHB-8" value="" style="edgeStyle=orthogonalEdgeStyle;rounded=0;orthogonalLoop=1;jettySize=auto;html=1;fontFamily=Comic Sans MS;dashed=1;" edge="1" parent="1" source="Bj8GhoDePKiAsQOhMvHB-2" target="Bj8GhoDePKiAsQOhMvHB-7">
          <mxGeometry relative="1" as="geometry" />
        </mxCell>
        <mxCell id="Bj8GhoDePKiAsQOhMvHB-12" value="RenderObjectElement" style="edgeLabel;html=1;align=center;verticalAlign=middle;resizable=0;points=[];fontFamily=Comic Sans MS;" vertex="1" connectable="0" parent="Bj8GhoDePKiAsQOhMvHB-8">
          <mxGeometry x="0.0106" y="-1" relative="1" as="geometry">
            <mxPoint as="offset" />
          </mxGeometry>
        </mxCell>
        <mxCell id="Bj8GhoDePKiAsQOhMvHB-10" value="" style="rounded=1;orthogonalLoop=1;jettySize=auto;html=1;fontFamily=Comic Sans MS;edgeStyle=orthogonalEdgeStyle;elbow=vertical;" edge="1" parent="1" source="Bj8GhoDePKiAsQOhMvHB-2" target="Bj8GhoDePKiAsQOhMvHB-9">
          <mxGeometry relative="1" as="geometry" />
        </mxCell>
        <mxCell id="Bj8GhoDePKiAsQOhMvHB-14" style="edgeStyle=orthogonalEdgeStyle;rounded=1;orthogonalLoop=1;jettySize=auto;html=1;entryX=1;entryY=0.5;entryDx=0;entryDy=0;dashed=1;fontFamily=Comic Sans MS;" edge="1" parent="1" source="Bj8GhoDePKiAsQOhMvHB-2" target="Bj8GhoDePKiAsQOhMvHB-13">
          <mxGeometry relative="1" as="geometry" />
        </mxCell>
        <mxCell id="Bj8GhoDePKiAsQOhMvHB-15" value="StatefulElement" style="edgeLabel;html=1;align=center;verticalAlign=middle;resizable=0;points=[];fontFamily=Comic Sans MS;" vertex="1" connectable="0" parent="Bj8GhoDePKiAsQOhMvHB-14">
          <mxGeometry x="0.0486" relative="1" as="geometry">
            <mxPoint as="offset" />
          </mxGeometry>
        </mxCell>
        <mxCell id="Bj8GhoDePKiAsQOhMvHB-2" value="&lt;h3&gt;Element&lt;/h3&gt;" style="rounded=1;whiteSpace=wrap;html=1;strokeWidth=2;fillWeight=4;hachureGap=8;hachureAngle=45;fillColor=#dae8fc;sketch=1;strokeColor=#6c8ebf;fontFamily=Comic Sans MS;" vertex="1" parent="1">
          <mxGeometry x="519.97" y="384" width="120" height="60" as="geometry" />
        </mxCell>
        <mxCell id="Bj8GhoDePKiAsQOhMvHB-3" value="&lt;h3&gt;&lt;font face=&quot;Comic Sans MS&quot;&gt;Parent Element&lt;/font&gt;&lt;/h3&gt;" style="rounded=1;whiteSpace=wrap;html=1;strokeWidth=2;fillWeight=4;hachureGap=8;hachureAngle=45;fillColor=#dae8fc;sketch=1;strokeColor=#6c8ebf;" vertex="1" parent="1">
          <mxGeometry x="519.97" y="244" width="120" height="60" as="geometry" />
        </mxCell>
        <mxCell id="Bj8GhoDePKiAsQOhMvHB-5" value="&lt;h3&gt;Child/Children Element&lt;/h3&gt;" style="rounded=1;whiteSpace=wrap;html=1;strokeWidth=2;fillWeight=4;hachureGap=8;hachureAngle=45;fillColor=#d5e8d4;sketch=1;strokeColor=#82b366;fontFamily=Comic Sans MS;" vertex="1" parent="1">
          <mxGeometry x="519.97" y="524" width="120" height="60" as="geometry" />
        </mxCell>
        <mxCell id="Bj8GhoDePKiAsQOhMvHB-7" value="&lt;h3&gt;RenderObject&lt;/h3&gt;" style="rounded=1;whiteSpace=wrap;html=1;strokeWidth=2;fillWeight=4;hachureGap=8;hachureAngle=45;fillColor=#ffe6cc;sketch=1;strokeColor=#d79b00;fontFamily=Comic Sans MS;" vertex="1" parent="1">
          <mxGeometry x="819.97" y="384" width="120" height="60" as="geometry" />
        </mxCell>
        <mxCell id="Bj8GhoDePKiAsQOhMvHB-9" value="&lt;h3&gt;Widget&lt;/h3&gt;" style="rounded=1;whiteSpace=wrap;html=1;strokeWidth=2;fillWeight=4;hachureGap=8;hachureAngle=45;fillColor=#f8cecc;sketch=1;strokeColor=#b85450;fontFamily=Comic Sans MS;" vertex="1" parent="1">
          <mxGeometry x="249.97000000000003" y="324" width="120" height="60" as="geometry" />
        </mxCell>
        <mxCell id="Bj8GhoDePKiAsQOhMvHB-16" style="edgeStyle=orthogonalEdgeStyle;rounded=1;orthogonalLoop=1;jettySize=auto;html=1;entryX=-0.019;entryY=0.595;entryDx=0;entryDy=0;entryPerimeter=0;fontFamily=Comic Sans MS;exitX=0;exitY=0.5;exitDx=0;exitDy=0;" edge="1" parent="1" source="Bj8GhoDePKiAsQOhMvHB-13" target="Bj8GhoDePKiAsQOhMvHB-9">
          <mxGeometry relative="1" as="geometry">
            <Array as="points">
              <mxPoint x="229.97000000000003" y="464" />
              <mxPoint x="229.97000000000003" y="360" />
            </Array>
          </mxGeometry>
        </mxCell>
        <mxCell id="Bj8GhoDePKiAsQOhMvHB-17" style="edgeStyle=orthogonalEdgeStyle;rounded=1;orthogonalLoop=1;jettySize=auto;html=1;entryX=0.18;entryY=0.998;entryDx=0;entryDy=0;fontFamily=Comic Sans MS;exitX=1;exitY=0.75;exitDx=0;exitDy=0;entryPerimeter=0;" edge="1" parent="1" source="Bj8GhoDePKiAsQOhMvHB-13" target="Bj8GhoDePKiAsQOhMvHB-2">
          <mxGeometry relative="1" as="geometry">
            <Array as="points">
              <mxPoint x="541.97" y="479" />
            </Array>
          </mxGeometry>
        </mxCell>
        <mxCell id="Bj8GhoDePKiAsQOhMvHB-13" value="&lt;h3&gt;State&lt;/h3&gt;" style="rounded=1;whiteSpace=wrap;html=1;strokeWidth=2;fillWeight=4;hachureGap=8;hachureAngle=45;fillColor=#e1d5e7;sketch=1;strokeColor=#9673a6;fontFamily=Comic Sans MS;" vertex="1" parent="1">
          <mxGeometry x="249.97000000000003" y="434" width="120" height="60" as="geometry" />
        </mxCell>
      </root>
    </mxGraphModel>
  </diagram>
</mxfile>
